<?xml version="1.0" standalone="no"?>
<!DOCTYPE svg PUBLIC "-//W3C//DTD SVG 20010904//EN"
 "http://www.w3.org/TR/2001/REC-SVG-20010904/DTD/svg10.dtd">
<svg version="1.0" xmlns="http://www.w3.org/2000/svg"
 width="1000.000000pt" height="750.000000pt" viewBox="0 0 1000.000000 750.000000"
 preserveAspectRatio="xMidYMid meet">

<g transform="translate(0.000000,750.000000) scale(0.100000,-0.100000)"
fill="#000000" stroke="none">
<path d="M4820 6344 c-535 -40 -1044 -237 -1445 -561 -119 -96 -335 -315 -426
-433 -301 -387 -476 -806 -535 -1280 -8 -63 -14 -120 -14 -127 0 -10 40 -13
180 -13 178 0 180 0 184 23 3 12 10 65 16 117 26 211 107 465 216 681 336 663
964 1110 1704 1214 168 23 440 21 616 -4 378 -56 721 -200 1033 -434 111 -83
313 -280 394 -383 244 -311 399 -662 458 -1031 12 -76 23 -148 25 -160 4 -23
6 -23 185 -23 l180 0 -6 58 c-36 336 -114 610 -254 897 -382 780 -1130 1318
-2001 1440 -114 16 -404 27 -510 19z"/>
<path d="M3700 5136 l0 -75 38 -6 c157 -24 192 -39 229 -94 49 -72 47 -44 51
-1168 3 -1172 3 -1169 -56 -1243 -53 -65 -119 -90 -274 -105 l-68 -7 0 -74 0
-75 873 4 c943 4 944 4 1182 61 319 77 548 235 641 442 88 197 63 475 -61 671
-136 214 -371 345 -677 375 -65 7 -118 15 -118 19 0 3 14 9 31 13 18 3 76 24
131 46 386 155 551 420 463 749 -59 224 -264 391 -581 475 -220 57 -245 59
-1056 63 l-748 4 0 -75z m1360 -166 c289 -37 414 -173 427 -465 6 -139 -5
-207 -48 -293 -92 -185 -314 -272 -696 -272 l-163 0 0 500 c0 487 1 501 20
520 19 19 33 20 203 20 100 0 216 -5 257 -10z m96 -1284 c316 -54 477 -181
540 -426 24 -89 24 -283 1 -369 -49 -182 -161 -290 -355 -343 -103 -28 -362
-30 -465 -5 -123 31 -206 87 -249 170 -42 84 -48 148 -48 586 l0 414 243 -6
c149 -3 277 -11 333 -21z"/>
<path d="M2400 3557 c0 -7 7 -68 15 -137 59 -472 249 -921 545 -1289 164 -203
445 -451 665 -588 319 -198 660 -321 1015 -367 721 -94 1439 105 1985 549 114
92 331 314 417 425 314 406 488 842 543 1358 l7 62 -181 0 c-179 0 -181 0
-185 -22 -3 -13 -10 -66 -16 -118 -60 -484 -340 -1009 -717 -1344 -174 -154
-324 -254 -538 -357 -292 -140 -553 -204 -885 -216 -1058 -37 -1995 673 -2249
1707 -16 63 -34 158 -41 210 -6 52 -14 105 -16 118 -4 22 -6 22 -184 22 -140
0 -180 -3 -180 -13z"/>
</g>
</svg>
